<?xml version="1.0" encoding="UTF-8" standalone="no"?>
<!-- Created with Inkscape (http://www.inkscape.org/) -->

<svg
   xmlns:dc="http://purl.org/dc/elements/1.1/"
   xmlns:cc="http://creativecommons.org/ns#"
   xmlns:rdf="http://www.w3.org/1999/02/22-rdf-syntax-ns#"
   xmlns:svg="http://www.w3.org/2000/svg"
   xmlns="http://www.w3.org/2000/svg"
   xmlns:sodipodi="http://sodipodi.sourceforge.net/DTD/sodipodi-0.dtd"
   xmlns:inkscape="http://www.inkscape.org/namespaces/inkscape"
   width="77.562119mm"
   height="60.375526mm"
   viewBox="0 0 77.562119 60.375526"
   version="1.1"
   id="svg8"
   inkscape:version="0.92.2 (5c3e80d, 2017-08-06)"
   sodipodi:docname="logo.svg">
  <defs
     id="defs2" />
  <sodipodi:namedview
     id="base"
     pagecolor="#ffffff"
     bordercolor="#666666"
     borderopacity="1.0"
     inkscape:pageopacity="0.0"
     inkscape:pageshadow="2"
     inkscape:zoom="0.49497475"
     inkscape:cx="42.228426"
     inkscape:cy="-293.82457"
     inkscape:document-units="mm"
     inkscape:current-layer="layer1"
     showgrid="false"
     inkscape:window-width="1280"
     inkscape:window-height="961"
     inkscape:window-x="1358"
     inkscape:window-y="-8"
     inkscape:window-maximized="1"
     fit-margin-top="0"
     fit-margin-left="0"
     fit-margin-right="0"
     fit-margin-bottom="0" />
  <metadata
     id="metadata5">
    <rdf:RDF>
      <cc:Work
         rdf:about="">
        <dc:format>image/svg+xml</dc:format>
        <dc:type
           rdf:resource="http://purl.org/dc/dcmitype/StillImage" />
        <dc:title></dc:title>
      </cc:Work>
    </rdf:RDF>
  </metadata>
  <g
     inkscape:label="Livello 1"
     inkscape:groupmode="layer"
     id="layer1"
     transform="translate(-0.18129248,-10.716723)">
    <path
       style="fill:#ffffff;stroke-width:0.26458332"
       d="m 7.491705,70.928733 c -2.497038,-0.77041 -4.638879,-2.7964 -5.573521,-5.27205 -0.443026,-1.17348 -0.53929,-1.89536 -0.448557,-3.36371 0.277721,-4.49439 3.367831,-7.49662 8.158061,-7.92606 l 2.003691,-0.17963 -0.878431,-2.33865 c -3.139689,-8.35879 -2.892452,-15.11463 0.877159,-23.96872 0.08815,-0.20704 -0.672783,-0.3328 -2.468508,-0.40799 -3.046006,-0.12754 -4.869263,-0.82548 -6.524465,-2.49755 -4.159576,-4.20196 -2.86944498,-10.91226 2.617117,-13.61229 l 1.311412,-0.64536 h 31.755534 31.75553 l 1.77349,0.87307 c 5.02337,2.47295 6.27757,8.88761 2.56284,13.10776 -1.50072,1.70491 -3.40472,2.56825 -6.0663,2.75068 -1.41618,0.0971 -2.10212,0.24615 -2.01982,0.43899 1.06975,2.50645 1.60331,4.01446 2.18314,6.17026 0.60779,2.25979 0.69723,3.10906 0.70452,6.68945 0.01,4.67673 -0.48488,7.45282 -1.99871,11.22307 l -0.88243,2.19771 2.48164,0.16302 c 4.24246,0.27867 6.66032,1.80025 8.21518,5.16986 1.83477,3.9762 0.0128,8.7864 -4.13012,10.9038 l -1.24699,0.63733 -31.750002,0.0455 c -17.462501,0.0251 -32.047658,-0.0463 -32.41146,-0.15853 z m 17.31603,-3.27075 c -4.116268,-2.16227 -8.677214,-6.19181 -10.8462,-9.58248 l -0.92984,-1.45357 h -1.96632 c -3.524293,0 -6.169417,1.54419 -7.010477,4.09263 -0.525736,1.59299 -0.237854,4.05005 0.626253,5.34506 0.732851,1.0983 2.248188,2.29265 3.224225,2.54125 0.281804,0.0718 4.679558,0.14084 9.772788,0.15347 l 9.260417,0.023 -2.130846,-1.11933 z m 37.893672,0.34516 c -0.94998,-1.12899 -1.76387,-3.49672 -1.76387,-5.13138 0,-1.83372 0.52184,-3.51033 1.56407,-5.02515 l 0.8426,-1.22468 -13.17573,-0.004 c -14.616573,-0.004 -15.009181,-0.041 -18.322783,-1.70968 -2.223392,-1.11967 -4.973992,-3.62708 -6.20886,-5.65989 -1.550628,-2.55261 -2.329633,-5.32429 -2.315064,-8.23693 0.01494,-2.98677 0.496286,-4.95957 1.828783,-7.49532 0.932143,-1.77387 3.411228,-4.61717 4.830736,-5.54045 0.618678,-0.4024 0.134528,-0.43112 -7.485545,-0.4441 l -8.147004,-0.0139 -0.773977,1.72505 c -5.991966,13.35496 -1.232232,28.29105 11.4366,35.88816 2.355377,1.41245 5.116736,2.4612 8.164378,3.10079 2.294017,0.48144 3.604964,0.52493 16.342086,0.54221 l 13.848,0.0188 z m 9.0264,0.37933 c 0.54103,-0.22565 1.37093,-0.78507 1.84423,-1.24315 0.92216,-0.8925 1.91759,-3.18105 1.91759,-4.40864 0,-2.97764 -3.13823,-6.10875 -6.12263,-6.10875 -2.27954,0 -5.08585,1.98676 -5.78085,4.09263 -0.52573,1.59299 -0.23785,4.05005 0.62626,5.34506 0.73285,1.0983 2.24818,2.29265 3.22422,2.54125 1.11648,0.28437 3.35944,0.17022 4.29118,-0.2184 z M 43.616272,53.467183 c 3.516895,-1.23227 6.836035,-4.68154 8.075815,-8.39244 0.82335,-2.46446 0.8269,-5.87029 0.009,-8.29656 -1.36804,-4.05643 -4.57275,-7.21504 -8.754864,-8.62892 -2.071878,-0.70045 -6.188938,-0.64436 -8.274603,0.11274 -8.629849,3.13263 -11.799715,13.33693 -6.415144,20.65135 1.142159,1.55151 3.816393,3.70425 5.313165,4.27706 3.147861,1.20468 7.088886,1.31325 10.046981,0.27677 z m 20.490025,-0.27261 c 3.04477,-5.96823 3.68998,-14.44425 1.57411,-20.67857 -3.29225,-9.70043 -10.76269,-16.48128 -20.871796,-18.94515 -1.441868,-0.35142 -4.10944,-0.43984 -15.995971,-0.5302 l -14.265525,-0.10845 0.742915,0.97401 c 2.269128,2.97498 2.252226,7.71986 -0.03719,10.44068 l -0.664424,0.78962 12.789667,0.005 c 14.471068,0.005 15.030196,0.0614 18.74279,1.88325 2.809954,1.37892 5.247524,3.7423 6.648904,6.44653 1.2006,2.31678 1.50475,3.26688 1.78413,5.57338 0.6798,5.61211 -1.69646,11.18574 -6.15763,14.443 l -1.03188,0.75342 h 8.10411 8.10411 z M 10.583335,24.857143 c 4.083664,-1.5317 5.427297,-6.79852 2.51673,-9.86517 -2.574308,-2.71237 -7.221684,-2.46969 -9.331156,0.48725 -1.625767,2.2789 -1.639032,4.79335 -0.03769,7.14375 1.357189,1.99203 4.642105,3.0631 6.852114,2.23417 z m 59.531252,0 c 2.45791,-0.92191 4.05212,-3.1779 4.05212,-5.7342 0,-2.4287 -1.11818,-4.27264 -3.30729,-5.45389 -1.01994,-0.55036 -1.40391,-0.57383 -10.58334,-0.64688 l -9.525,-0.0758 2.18342,1.13413 c 1.20089,0.62377 2.92729,1.66991 3.83646,2.32475 2.10308,1.51477 5.4263,4.86979 6.97918,7.04596 l 1.2026,1.68529 h 2.20851 c 1.21468,0 2.54369,-0.12572 2.95334,-0.27937 z"
       id="path826"
       inkscape:connector-curvature="0" />
    <rect
       style="opacity:0;fill:#ffffff;fill-opacity:1;stroke:#000000;stroke-width:0.26458332;stroke-opacity:1"
       id="rect828"
       width="188.9881"
       height="89.202377"
       x="25.702381"
       y="15.785713" />
    <rect
       style="opacity:0;fill:#ff0000;fill-opacity:1;stroke:#000000;stroke-width:0.26458332;stroke-opacity:1"
       id="rect830"
       width="156.48215"
       height="68.035713"
       x="10.583333"
       y="24.857143" />
    <rect
       style="opacity:0;fill:#ff0000;fill-opacity:1;stroke:#000000;stroke-width:0.26458332;stroke-opacity:1"
       id="rect832"
       width="123.22024"
       height="82.398804"
       x="91.470238"
       y="22.589287" />
    <rect
       style="opacity:0;fill:#ff0000;fill-opacity:1;stroke:#000000;stroke-width:0.26458332;stroke-opacity:1"
       id="rect834"
       width="45.357143"
       height="75.595238"
       x="188.9881"
       y="151.1012" />
    <rect
       style="opacity:0;fill:#ff0000;fill-opacity:1;stroke:#000000;stroke-width:0.26458332;stroke-opacity:1"
       id="rect836"
       width="123.22024"
       height="82.398804"
       x="91.470238"
       y="22.589287" />
  </g>
</svg>
